# xmcd
# 
# Track frame offsets:
#     150
#     17482
#     35264
#     53938
#     68529
#     88213
#     112049
#     130104
#     151275
#     169115
#     188758
# 
# Disc length: 3037
# 
# Revision: 0
# Processed by: cddbd v1.5.2PL0 Copyright (c) Steve Scherf et al.
# Submitted via: fre:ac v1.1beta1pre4
# 
DISCID=870bdb0b
DTITLE=Cody Canada and The Departed - HippieLovePunk
DYEAR=2015
DGENRE=Country
TTITLE0=Comin to Me
TTITLE1=Inbetweener
TTITLE2=Easy
TTITLE3=Revolution
TTITLE4=Back Closer
TTITLE5=Got It
TTITLE6=Great Big Nothin
TTITLE7=Maker
TTITLE8=Stay
TTITLE9=Boss of Me
TTITLE10=All Nighter
EXTD=
EXTT0=
EXTT1=
EXTT2=
EXTT3=
EXTT4=
EXTT5=
EXTT6=
EXTT7=
EXTT8=
EXTT9=
EXTT10=
PLAYORDER=
